<mxfile host="app.diagrams.net" modified="2023-05-28T14:54:09.088Z" agent="Mozilla/5.0 (Windows NT 10.0; Win64; x64) AppleWebKit/537.36 (KHTML, like Gecko) Chrome/113.0.0.0 Safari/537.36 Edg/113.0.1774.57" etag="0zwNq0_53VCE6xUATJNg" version="21.3.2" type="github">
  <diagram name="第 1 页" id="RSp3KDEHoxh-OFUfuOCe">
    <mxGraphModel dx="1099" dy="617" grid="1" gridSize="10" guides="1" tooltips="1" connect="1" arrows="1" fold="1" page="1" pageScale="1" pageWidth="827" pageHeight="1169" math="0" shadow="0">
      <root>
        <mxCell id="0" />
        <mxCell id="1" parent="0" />
        <mxCell id="sUZADojSoTXHIQ3Wr3C0-1" value="[1,3,640,640]" style="rounded=0;whiteSpace=wrap;html=1;fillColor=none;strokeColor=none;" vertex="1" parent="1">
          <mxGeometry x="1365" y="70" width="120" height="30" as="geometry" />
        </mxCell>
        <mxCell id="sUZADojSoTXHIQ3Wr3C0-2" value="Conv&lt;br&gt;k=6 s=2" style="rounded=0;whiteSpace=wrap;html=1;fillColor=#dae8fc;strokeColor=#000000;" vertex="1" parent="1">
          <mxGeometry x="1385" y="110" width="80" height="30" as="geometry" />
        </mxCell>
        <mxCell id="sUZADojSoTXHIQ3Wr3C0-3" value="Concat" style="rhombus;whiteSpace=wrap;html=1;fillColor=#fff2cc;strokeColor=#000000;" vertex="1" parent="1">
          <mxGeometry x="1380" y="150" width="90" height="36" as="geometry" />
        </mxCell>
        <mxCell id="sUZADojSoTXHIQ3Wr3C0-4" value="Conv&lt;br&gt;k=6 s=2" style="rounded=0;whiteSpace=wrap;html=1;fillColor=#dae8fc;strokeColor=#000000;" vertex="1" parent="1">
          <mxGeometry x="870" y="350" width="80" height="30" as="geometry" />
        </mxCell>
        <mxCell id="sUZADojSoTXHIQ3Wr3C0-5" value="Conv&lt;br&gt;k=6 s=2" style="rounded=0;whiteSpace=wrap;html=1;fillColor=#dae8fc;strokeColor=#000000;" vertex="1" parent="1">
          <mxGeometry x="1510" y="350" width="80" height="30" as="geometry" />
        </mxCell>
        <mxCell id="sUZADojSoTXHIQ3Wr3C0-6" value="Concat" style="rhombus;whiteSpace=wrap;html=1;fillColor=#fff2cc;strokeColor=#000000;" vertex="1" parent="1">
          <mxGeometry x="1370" y="347" width="90" height="36" as="geometry" />
        </mxCell>
        <mxCell id="sUZADojSoTXHIQ3Wr3C0-7" value="Maxpool&lt;br&gt;5×5" style="rounded=0;whiteSpace=wrap;html=1;fillColor=#a20025;strokeColor=#6F0000;fontColor=#ffffff;" vertex="1" parent="1">
          <mxGeometry x="1241" y="350" width="80" height="30" as="geometry" />
        </mxCell>
        <mxCell id="sUZADojSoTXHIQ3Wr3C0-8" value="Maxpool&lt;br&gt;5×5" style="rounded=0;whiteSpace=wrap;html=1;fillColor=#a20025;strokeColor=#6F0000;fontColor=#ffffff;" vertex="1" parent="1">
          <mxGeometry x="1000" y="350" width="80" height="30" as="geometry" />
        </mxCell>
        <mxCell id="sUZADojSoTXHIQ3Wr3C0-9" value="Maxpool&lt;br&gt;5×5" style="rounded=0;whiteSpace=wrap;html=1;fillColor=#a20025;strokeColor=#6F0000;fontColor=#ffffff;" vertex="1" parent="1">
          <mxGeometry x="1120" y="350" width="80" height="30" as="geometry" />
        </mxCell>
        <mxCell id="sUZADojSoTXHIQ3Wr3C0-10" value="" style="endArrow=classic;html=1;rounded=0;entryX=0;entryY=0.5;entryDx=0;entryDy=0;" edge="1" parent="1" target="sUZADojSoTXHIQ3Wr3C0-4">
          <mxGeometry width="50" height="50" relative="1" as="geometry">
            <mxPoint x="789.3103448275862" y="365" as="sourcePoint" />
            <mxPoint x="1160" y="220" as="targetPoint" />
          </mxGeometry>
        </mxCell>
        <mxCell id="sUZADojSoTXHIQ3Wr3C0-12" value="" style="endArrow=classic;html=1;rounded=0;" edge="1" parent="1" source="sUZADojSoTXHIQ3Wr3C0-4" target="sUZADojSoTXHIQ3Wr3C0-8">
          <mxGeometry width="50" height="50" relative="1" as="geometry">
            <mxPoint x="799.3103448275862" y="375" as="sourcePoint" />
            <mxPoint x="880" y="375" as="targetPoint" />
          </mxGeometry>
        </mxCell>
        <mxCell id="sUZADojSoTXHIQ3Wr3C0-13" value="" style="endArrow=classic;html=1;rounded=0;" edge="1" parent="1" source="sUZADojSoTXHIQ3Wr3C0-8" target="sUZADojSoTXHIQ3Wr3C0-9">
          <mxGeometry width="50" height="50" relative="1" as="geometry">
            <mxPoint x="809.3103448275862" y="385" as="sourcePoint" />
            <mxPoint x="890" y="385" as="targetPoint" />
          </mxGeometry>
        </mxCell>
        <mxCell id="sUZADojSoTXHIQ3Wr3C0-14" value="" style="endArrow=classic;html=1;rounded=0;" edge="1" parent="1" source="sUZADojSoTXHIQ3Wr3C0-9" target="sUZADojSoTXHIQ3Wr3C0-7">
          <mxGeometry width="50" height="50" relative="1" as="geometry">
            <mxPoint x="819.3103448275862" y="395" as="sourcePoint" />
            <mxPoint x="900" y="395" as="targetPoint" />
          </mxGeometry>
        </mxCell>
        <mxCell id="sUZADojSoTXHIQ3Wr3C0-15" value="" style="endArrow=classic;html=1;rounded=0;" edge="1" parent="1" source="sUZADojSoTXHIQ3Wr3C0-7" target="sUZADojSoTXHIQ3Wr3C0-6">
          <mxGeometry width="50" height="50" relative="1" as="geometry">
            <mxPoint x="829.3103448275862" y="405" as="sourcePoint" />
            <mxPoint x="910" y="405" as="targetPoint" />
          </mxGeometry>
        </mxCell>
        <mxCell id="sUZADojSoTXHIQ3Wr3C0-16" value="" style="endArrow=classic;html=1;rounded=0;" edge="1" parent="1" source="sUZADojSoTXHIQ3Wr3C0-6" target="sUZADojSoTXHIQ3Wr3C0-5">
          <mxGeometry width="50" height="50" relative="1" as="geometry">
            <mxPoint x="839.3103448275862" y="415" as="sourcePoint" />
            <mxPoint x="920" y="415" as="targetPoint" />
          </mxGeometry>
        </mxCell>
        <mxCell id="sUZADojSoTXHIQ3Wr3C0-17" value="" style="endArrow=classic;html=1;rounded=0;entryX=0.5;entryY=1;entryDx=0;entryDy=0;exitX=0.428;exitY=1.031;exitDx=0;exitDy=0;exitPerimeter=0;" edge="1" parent="1" source="sUZADojSoTXHIQ3Wr3C0-4" target="sUZADojSoTXHIQ3Wr3C0-6">
          <mxGeometry width="50" height="50" relative="1" as="geometry">
            <mxPoint x="849.3103448275862" y="425" as="sourcePoint" />
            <mxPoint x="930" y="425" as="targetPoint" />
            <Array as="points">
              <mxPoint x="904" y="440" />
              <mxPoint x="1415" y="440" />
            </Array>
          </mxGeometry>
        </mxCell>
        <mxCell id="sUZADojSoTXHIQ3Wr3C0-18" value="[bs,c1,w,h]" style="rounded=0;whiteSpace=wrap;html=1;fillColor=none;strokeColor=none;" vertex="1" parent="1">
          <mxGeometry x="770" y="340" width="120" height="30" as="geometry" />
        </mxCell>
        <mxCell id="sUZADojSoTXHIQ3Wr3C0-19" value="[bs,c1/2,w,h]" style="rounded=0;whiteSpace=wrap;html=1;fillColor=none;strokeColor=none;" vertex="1" parent="1">
          <mxGeometry x="930" y="320" width="80" height="30" as="geometry" />
        </mxCell>
        <mxCell id="sUZADojSoTXHIQ3Wr3C0-20" value="[bs,c1/2,w,h]" style="rounded=0;whiteSpace=wrap;html=1;fillColor=none;strokeColor=none;" vertex="1" parent="1">
          <mxGeometry x="1060" y="320" width="80" height="30" as="geometry" />
        </mxCell>
        <mxCell id="sUZADojSoTXHIQ3Wr3C0-21" value="[bs,c1/2,w,h]" style="rounded=0;whiteSpace=wrap;html=1;fillColor=none;strokeColor=none;" vertex="1" parent="1">
          <mxGeometry x="1180" y="390" width="80" height="30" as="geometry" />
        </mxCell>
        <mxCell id="sUZADojSoTXHIQ3Wr3C0-22" value="[bs,c1/2,w,h]" style="rounded=0;whiteSpace=wrap;html=1;fillColor=none;strokeColor=none;" vertex="1" parent="1">
          <mxGeometry x="1305" y="320" width="80" height="30" as="geometry" />
        </mxCell>
        <mxCell id="sUZADojSoTXHIQ3Wr3C0-23" value="[bs,2*c1,w,h]" style="rounded=0;whiteSpace=wrap;html=1;fillColor=none;strokeColor=none;" vertex="1" parent="1">
          <mxGeometry x="1430" y="320" width="80" height="30" as="geometry" />
        </mxCell>
        <mxCell id="sUZADojSoTXHIQ3Wr3C0-24" value="[bs,c2,w,h]" style="rounded=0;whiteSpace=wrap;html=1;fillColor=none;strokeColor=none;" vertex="1" parent="1">
          <mxGeometry x="1580" y="320" width="80" height="30" as="geometry" />
        </mxCell>
        <mxCell id="sUZADojSoTXHIQ3Wr3C0-25" value="" style="endArrow=classic;html=1;rounded=0;exitX=1;exitY=0.5;exitDx=0;exitDy=0;" edge="1" parent="1" source="sUZADojSoTXHIQ3Wr3C0-5">
          <mxGeometry width="50" height="50" relative="1" as="geometry">
            <mxPoint x="1470" y="375" as="sourcePoint" />
            <mxPoint x="1661.3793103448277" y="365" as="targetPoint" />
          </mxGeometry>
        </mxCell>
      </root>
    </mxGraphModel>
  </diagram>
</mxfile>
